<svg xmlns="http://www.w3.org/2000/svg" viewBox="0 0 103.18 43.07"><defs><style>.cls-1{fill:#fff;stroke-miterlimit:10;}.cls-1,.cls-3{stroke:#000;stroke-width:2px;}.cls-2,.cls-3{fill:none;}.cls-3{stroke-linecap:round;stroke-linejoin:round;}.cls-4{font-size:24px;}.cls-4,.cls-5{font-family:CTZhongYuanSJ;}.cls-5{font-size:11px;}</style></defs><title>资源 25-5</title><g id="图层_2" data-name="图层 2"><g id="图层_1-2" data-name="图层 1"><g id="图层_2-2" data-name="图层 2"><g id="图层_1-2-2" data-name="图层 1-2"><circle class="cls-1" cx="21" cy="21" r="20"/><rect class="cls-2" x="12.79" y="2.5" width="19.41" height="17.24"/><line class="cls-3" x1="26.18" y1="24.5" x2="11.44" y2="24.5"/><path class="cls-3" d="M26.37,24.66a5.13,5.13,0,0,1-10.25.45,3.38,3.38,0,0,1,0-.45"/><path class="cls-3" d="M30.87,24.7a8.37,8.37,0,0,1,.05,1,9.82,9.82,0,1,1-19.64,0h0v-.78"/><path class="cls-3" d="M16.06,24.69a10.67,10.67,0,0,1,1.48-6.82"/><path d="M21.33,5.5a6.8,6.8,0,1,0,6.74,6.86v-.07A6.77,6.77,0,0,0,21.33,5.5Zm0,11.44a4.64,4.64,0,1,1,.06,0Z"/><ellipse cx="21.33" cy="12.29" rx="1.46" ry="1.47"/></g></g><text class="cls-4" transform="translate(46.87 25.41)">行客</text><text class="cls-5" transform="translate(51.91 38.6) scale(1.27 1)">surfer</text></g></g></svg>